PathFileType	4	(X/Y/Z)	C:\Users\WrightLab\Desktop\Jo\P1.2Trial14.trc
DataRate	CameraRate	NumFrames	NumMarkers	Units	OrigDataRate	OrigDataStartFrame	OrigNumFrames
100.00	100.00	       100	19	mm	100.00	1	       938
Frame#	Time	Headset_Front			Headset_Back			Headset_Left			Headset_Right			Left_Shoulder			Right_Shoulder			Sternum			C7			Left Elbow			Right Elbow			Left Wrist			Right Wrist			Left ASIS			Right ASIS			S2			Left Knee			Right Knee			Left Ankle			Right Ankle			
		X1	Y1	Z1	X2	Y2	Z2	X3	Y3	Z3	X4	Y4	Z4	X5	Y5	Z5	X6	Y6	Z6	X7	Y7	Z7	X8	Y8	Z8	X9	Y9	Z9	X10	Y10	Z10	X11	Y11	Z11	X12	Y12	Z12	X13	Y13	Z13	X14	Y14	Z14	X15	Y15	Z15	X16	Y16	Z16	X17	Y17	Z17	X18	Y18	Z18	X19	Y19	Z19	

1	0.000																																		-106.95380	1020.35431	2044.74915																						
2	0.010																																		-106.99275	1018.88550	2044.57080																						
3	0.020																																		-106.75237	1017.34259	2044.53088																						
4	0.030																																		-106.67488	1015.25769	2045.35718																						
5	0.040																																		-106.66665	1012.82111	2044.66064																						
6	0.050																																		-106.25907	1010.03857	2045.53918																						
7	0.060																																		-106.38252	1006.95636	2045.65417																						
8	0.070																																		-106.51947	1003.67151	2046.08582																						
9	0.080																																		-106.59968	1000.01654	2046.96362																						
10	0.090																																		-106.70420	995.42194	2047.84558																						
11	0.100																																		-106.71563	991.06458	2048.35522																						
12	0.110																																		-106.53433	986.61566	2048.61694																						
13	0.120																																		-106.71615	982.14081	2049.37134																						
14	0.130																																		-106.96659	977.52258	2049.63965																						
15	0.140																																		-107.47572	972.42102	2050.44946																						
16	0.150																																		-107.59183	967.25397	2050.16626																						
17	0.160																																		-108.01087	962.53333	2049.62354																						
18	0.170																																		-108.20068	957.66125	2050.34424																						
19	0.180																																		-108.71268	953.49512	2050.27271																						
20	0.190																																		-109.20872	949.44141	2050.13232																						
21	0.200																																		-109.56894	945.47803	2049.14502																						
22	0.210																																		-110.06025	941.67914	2048.27026																						
23	0.220																																		-110.25797	938.43542	2047.67175																						
24	0.230																																		-110.70774	935.40179	2046.15845																						
25	0.240																																		-111.35403	932.73004	2044.43811																						
26	0.250																																		-111.86100	930.53058	2042.37195																						
27	0.260																																		-112.56068	928.55365	2040.23596																						
28	0.270																																		-113.58215	926.75677	2036.92969																						
29	0.280																																		-116.21415	924.50018	2036.12671																						
30	0.290																																		-116.86433	923.05518	2032.18616																						
31	0.300																																		-117.64046	922.51215	2026.70105																						
32	0.310																																		-118.40945	921.16382	2023.90735																						
33	0.320																																		-119.45346	921.47632	2017.19226																						
34	0.330																																		-120.80470	921.28912	2009.75049																						
35	0.340																																		-122.12151	920.61121	2006.97974																						
36	0.350																																		-123.58051	920.84662	1999.90002																						
37	0.360																																		-124.94276	921.25952	1992.69299																						
38	0.370																																		-127.01302	921.54254	1986.53320																						
39	0.380																																		-129.02126	921.09961	1981.67383																						
40	0.390																																		-131.06136	922.42407	1971.55969																						
41	0.400																																		-133.50609	922.76324	1964.96338																						
42	0.410																																		-135.98683	922.96234	1955.24646																						
43	0.420																																		-138.17601	923.41412	1947.92249																						
44	0.430																																		-141.21280	923.92236	1939.69800																						
45	0.440																																		-143.15094	923.79022	1931.39026																						
46	0.450																																		-146.07378	924.27368	1923.05945																						
47	0.460																																		-148.81415	924.77612	1914.50891																						
48	0.470																																		-151.52805	924.98590	1905.76343																						
49	0.480																																		-154.49409	924.98822	1895.49231																						
50	0.490																																		-157.11505	924.58026	1889.34082																						
51	0.500																																		-160.30864	925.16614	1880.60413																						
52	0.510																																		-163.41733	925.47504	1871.72534																						
53	0.520																																		-166.32776	924.46301	1863.54602																						
54	0.530																																		-170.04390	925.91620	1853.51721																						
55	0.540																																		-173.25317	925.64008	1845.50854																						
56	0.550																																		-175.74142	926.50128	1833.81335																						
57	0.560																																		-179.35648	926.91473	1826.09741																						
58	0.570																																		-183.00987	927.02930	1819.18335																						
59	0.580																																		-187.05951	927.02844	1811.22913																						
60	0.590																																		-191.49783	927.01563	1802.23267																						
61	0.600																																		-196.04031	927.72577	1795.14709																						
62	0.610																																		-200.71735	927.31256	1787.16357																						
63	0.620																																		-205.03827	926.93658	1779.74963																						
64	0.630																																		-209.29739	927.07581	1774.82727																						
65	0.640																																		-214.38164	926.87354	1766.48718																						
66	0.650																																		-218.97798	926.90363	1759.86145																						
67	0.660																																		-223.52547	926.62433	1754.45483																						
68	0.670																																		-228.12390	926.43793	1750.34949																						
69	0.680																																		-232.62506	925.48883	1742.92065																						
70	0.690																																		-237.33720	925.39880	1736.63818																						
71	0.700																																		-241.67653	924.48535	1733.68005																						
72	0.710																																		-246.47664	923.53601	1727.14709																						
73	0.720																																		-251.32727	921.89667	1722.47729																						
74	0.730																																		-255.94891	921.44220	1718.22522																						
75	0.740																																		-260.39133	919.54816	1711.91882																						
76	0.750																																		-264.84796	918.85529	1706.18250																						
77	0.760																																		-269.53696	916.78149	1699.32617																						
78	0.770																																		-273.52899	916.33344	1694.22681																						
79	0.780																												-232.10342	1056.95813	1917.39001				-276.94070	914.76172	1689.69568													-287.17725	466.12793	2004.26929							
80	0.790																												-235.38387	1057.97644	1911.69385				-280.97980	913.30029	1684.46191													-287.14539	466.85043	1990.16272							
81	0.800																												-239.13562	1058.35754	1903.67493				-283.85025	913.34644	1678.35754													-286.01978	468.17255	1972.93140							
82	0.810																												-242.27182	1058.01245	1897.61462				-286.71146	911.17712	1673.01501													-285.58487	468.54343	1963.20166							
83	0.820																												-244.42302	1058.32080	1892.99817				-289.18137	911.51123	1667.90515													-287.17038	471.01303	1946.93506							
84	0.830																												-247.86707	1058.82581	1887.63477				-291.33307	911.60602	1662.83386													-290.99777	473.07776	1935.48376							
85	0.840																												-250.05028	1058.76843	1882.06787				-292.83588	910.26343	1655.92578													-295.91330	476.00748	1924.11414							
86	0.850																												-252.72070	1058.31482	1876.86682				-294.61469	910.31946	1652.26880													-300.25644	479.79691	1912.04773							
87	0.860																												-254.98103	1058.69019	1872.42102				-295.77643	910.28613	1647.25964													-302.74844	485.19333	1896.04773							
88	0.870																												-257.35834	1058.60547	1867.50659				-296.71820	909.71112	1641.55701													-306.29507	487.07788	1890.11609							
89	0.880																												-258.96674	1059.14893	1863.85828				-297.28845	909.59735	1638.36353													-311.16022	489.61685	1879.42200							
90	0.890																												-260.37021	1059.67236	1860.23059				-297.81241	909.94922	1633.97400													-315.54944	492.11856	1868.90698							
91	0.900																												-261.91043	1060.16577	1857.08777				-298.09131	910.22565	1630.04602													-318.86078	493.94113	1861.46301							
92	0.910																												-262.94751	1060.70569	1852.46167				-298.53549	910.50226	1625.13940													-323.66095	496.62277	1852.73901							
93	0.920																												-263.99536	1060.82166	1847.65247				-298.97833	910.59161	1619.53027													-328.97095	498.77008	1843.30945							
94	0.930																												-264.96759	1060.82214	1842.81519				-299.22946	910.96033	1614.72607													-333.36722	500.56155	1836.04041							
95	0.940																												-265.38992	1061.19531	1837.18628				-299.04935	911.17847	1609.97278													-338.39160	502.11694	1828.07922							
96	0.950																												-265.50394	1061.35876	1832.55286				-298.74014	910.78314	1604.51660													-343.85934	504.05756	1819.97437							
97	0.960																												-265.76129	1061.90259	1827.36060				-298.76498	911.49731	1599.80786													-348.37497	505.51395	1813.57813							
98	0.970																												-265.74371	1062.30994	1822.55859				-298.63419	911.41046	1594.44934													-353.00745	506.31058	1807.08484							
99	0.980																												-265.75482	1062.25867	1816.96606				-297.83817	910.68939	1589.31555													-358.09091	508.46628	1801.54529							
100	0.990																												-265.82291	1061.92371	1810.97217				-297.39453	910.56213	1584.38440													-362.45596	508.09586	1795.96851							
